<svg width="24px" height="24px" viewBox="0 0 24 24" id="magicoon-Filled" xmlns="http://www.w3.org/2000/svg"><defs><style>.cls-1{fill:#41416e;}</style></defs><title>map-marker</title><g id="map-marker-Filled"><path id="map-marker-Filled-2" data-name="map-marker-Filled" class="cls-1" d="M14,10a2,2,0,1,1-2-2A2.006,2.006,0,0,1,14,10Zm5.5,0c0,6.08-4.67,9.89-6.67,11.24a1.407,1.407,0,0,1-.83.26,1.459,1.459,0,0,1-.84-.26C9.16,19.89,4.5,16.09,4.5,10A7.33,7.33,0,0,1,12,2.5,7.336,7.336,0,0,1,19.5,10ZM16,10a4,4,0,1,0-4,4A4,4,0,0,0,16,10Z"/></g></svg>